<svg xmlns="http://www.w3.org/2000/svg" xmlns:xlink="http://www.w3.org/1999/xlink" version="1.1" width="256" height="256" viewBox="0 0 256 256" xml:space="preserve">

<defs>
</defs>
<g style="stroke: none; stroke-width: 0; stroke-dasharray: none; stroke-linecap: butt; stroke-linejoin: miter; stroke-miterlimit: 10; fill: none; fill-rule: nonzero; opacity: 1;" transform="translate(1.4065934065934016 1.4065934065934016) scale(2.81 2.81)" >
	<path d="M 38.833 4.28 C 28.143 7.958 18.3 15.764 11.883 24.166 C 4.53 33.795 0.312 45.78 0.015 57.892 c -0.073 2.996 0.094 6.04 1.037 8.884 c 1.28 3.86 3.928 7.145 6.991 9.82 c 7.427 6.484 17.302 9.644 27.123 10.513 c 14.277 1.262 29.584 1.237 40.85 -8.938 c 8.544 -7.716 12.971 -19.258 13.826 -30.738 c 0.655 -8.798 -0.692 -17.904 -4.974 -25.618 C 76.105 6.027 55.755 -1.544 38.833 4.28 z" style="stroke: none; stroke-width: 1; stroke-dasharray: none; stroke-linecap: butt; stroke-linejoin: miter; stroke-miterlimit: 10; fill: rgb(19,62,63); fill-rule: nonzero; opacity: 1;" transform=" matrix(1 0 0 1 0 0) " stroke-linecap="round" />
</g>
</svg>