<svg xmlns="http://www.w3.org/2000/svg" xmlns:xlink="http://www.w3.org/1999/xlink" version="1.1" width="256" height="256" viewBox="0 0 256 256" xml:space="preserve">

<defs>
</defs>
<g style="stroke: none; stroke-width: 0; stroke-dasharray: none; stroke-linecap: butt; stroke-linejoin: miter; stroke-miterlimit: 10; fill: none; fill-rule: nonzero; opacity: 1;" transform="translate(1.4065934065934016 1.4065934065934016) scale(2.81 2.81)" >
	<path d="M 78.098 51.887 c 1.217 -0.81 2.419 -1.733 3.597 -2.797 c 8.321 -6.85 13.297 -38.05 0.537 -42.617 C 70.629 3.35 59.025 21.578 47.422 46.971 v -7.815 c 0 -0.023 -0.006 -0.044 -0.007 -0.066 c 1.09 -0.751 1.807 -2.005 1.807 -3.429 c 0 -1.101 -0.431 -2.63 -1.129 -3.927 c 0 -0.005 0.003 -0.01 0.003 -0.015 c -0.093 -4.824 2.571 -11.224 6.629 -15.926 c 0.361 -0.418 0.314 -1.049 -0.104 -1.41 c -0.417 -0.361 -1.051 -0.314 -1.41 0.104 c -3.835 4.443 -6.441 10.126 -7.001 15.054 c -0.366 -0.221 -0.751 -0.353 -1.151 -0.353 c -0.401 0 -0.787 0.133 -1.154 0.355 c -0.561 -4.93 -3.166 -10.613 -7.002 -15.056 c -0.361 -0.418 -0.993 -0.465 -1.41 -0.104 c -0.418 0.361 -0.464 0.992 -0.104 1.41 c 4.058 4.701 6.722 11.101 6.629 15.926 c 0 0.007 0.003 0.012 0.003 0.019 c -0.697 1.296 -1.127 2.823 -1.127 3.923 c 0 1.371 0.671 2.577 1.693 3.335 c -0.004 0.054 -0.016 0.105 -0.016 0.16 v 7.803 C 30.971 21.572 19.369 3.35 7.768 6.474 C -4.992 11.04 -0.016 42.241 8.305 49.091 c 1.178 1.064 2.379 1.987 3.597 2.797 L 8.03 57.327 c -3.909 5.491 -4.157 12.787 -0.632 18.532 c 4.595 7.487 14.181 10.171 21.995 6.159 l 2.113 -1.085 c 4.79 -2.46 8.111 -7.066 8.932 -12.388 l 2.134 -12.847 v 2.859 c 0 4.676 0.391 9.345 1.168 13.956 l 0.46 2.726 c 0.151 0.899 1.443 0.899 1.594 0 l 0.46 -2.726 c 0.777 -4.611 1.168 -9.279 1.168 -13.956 v -2.893 l 2.14 12.882 c 0.82 5.322 4.141 9.928 8.932 12.388 l 2.113 1.085 c 7.814 4.012 17.401 1.328 21.995 -6.159 c 3.525 -5.745 3.277 -13.04 -0.632 -18.532 L 78.098 51.887 z" style="stroke: none; stroke-width: 1; stroke-dasharray: none; stroke-linecap: butt; stroke-linejoin: miter; stroke-miterlimit: 10; fill: rgb(0,0,0); fill-rule: nonzero; opacity: 1;" transform=" matrix(1 0 0 1 0 0) " stroke-linecap="round" />
</g>
</svg>