<svg xmlns="http://www.w3.org/2000/svg" xmlns:xlink="http://www.w3.org/1999/xlink" version="1.1" width="256" height="256" viewBox="0 0 256 256" xml:space="preserve">

<defs>
</defs>
<g style="stroke: none; stroke-width: 0; stroke-dasharray: none; stroke-linecap: butt; stroke-linejoin: miter; stroke-miterlimit: 10; fill: none; fill-rule: nonzero; opacity: 1;" transform="translate(1.4065934065934016 1.4065934065934016) scale(2.81 2.81)" >
	<path d="M 10.759 14.005 c -0.411 -0.369 -0.831 -0.749 -1.284 -0.999 l -0.168 -0.107 l -0.172 -0.084 c -0.115 -0.054 -0.23 -0.119 -0.346 -0.17 c -0.234 -0.082 -0.469 -0.187 -0.708 -0.233 c -0.954 -0.257 -1.945 -0.143 -2.807 0.31 c -0.435 0.223 -0.814 0.56 -1.141 0.96 l -0.126 0.149 l -0.094 0.153 l -0.1 0.152 c -0.038 0.048 -0.068 0.102 -0.09 0.162 c -0.051 0.115 -0.105 0.231 -0.163 0.347 c -0.037 0.128 -0.076 0.257 -0.119 0.387 c -0.293 1.067 -0.216 2.442 0.154 3.787 c 0.351 1.356 0.977 2.694 1.745 3.936 c 0.187 0.317 0.396 0.616 0.608 0.916 c 0.203 0.309 0.441 0.585 0.664 0.879 c 0.447 0.566 0.96 1.089 1.497 1.607 c 1.076 1.03 2.232 1.994 3.422 2.898 c 1.193 0.902 2.339 1.771 3.649 2.471 c -1.387 -0.479 -2.65 -1.146 -3.966 -1.855 c -1.317 -0.714 -2.609 -1.49 -3.867 -2.375 c -0.626 -0.444 -1.257 -0.918 -1.85 -1.475 c -0.286 -0.279 -0.587 -0.543 -0.857 -0.844 c -0.278 -0.293 -0.556 -0.588 -0.812 -0.907 c -1.048 -1.253 -1.984 -2.663 -2.664 -4.289 c -0.355 -0.803 -0.614 -1.678 -0.802 -2.594 C 0.179 16.27 0.13 15.28 0.234 14.271 c 0.088 -1.008 0.459 -2.053 0.949 -2.929 c 0.491 -0.864 1.13 -1.651 1.899 -2.254 C 4.607 7.865 6.567 7.279 8.47 7.425 c 0.481 0.017 0.946 0.11 1.418 0.201 c 0.232 0.054 0.458 0.126 0.688 0.192 l 0.343 0.105 l 0.331 0.131 c 0.901 0.329 1.713 0.825 2.504 1.352 c 1.253 0.835 1.683 2.608 0.96 3.961 c -0.723 1.353 -2.324 1.774 -3.578 0.939 c -0.106 -0.071 -0.207 -0.148 -0.301 -0.232 L 10.759 14.005 z" style="stroke: none; stroke-width: 1; stroke-dasharray: none; stroke-linecap: butt; stroke-linejoin: miter; stroke-miterlimit: 10; fill: rgb(252,101,126); fill-rule: nonzero; opacity: 1;" transform=" matrix(2.81 0 0 2.81 1.4065934065934016 1.4065934065934016) " stroke-linecap="round" />
	<circle cx="32.699" cy="8.949" r="8.949" style="stroke: none; stroke-width: 1; stroke-dasharray: none; stroke-linecap: butt; stroke-linejoin: miter; stroke-miterlimit: 10; fill: rgb(252,101,126); fill-rule: nonzero; opacity: 1;" transform="  matrix(1 0 0 1 0 0) "/>
	<path d="M 20.268 14.005 c 0.411 -0.369 0.831 -0.749 1.284 -0.999 l 0.168 -0.107 l 0.172 -0.084 c 0.115 -0.054 0.23 -0.119 0.346 -0.17 c 0.234 -0.082 0.469 -0.187 0.708 -0.233 c 0.954 -0.257 1.945 -0.143 2.807 0.31 c 0.435 0.223 0.814 0.56 1.141 0.96 l 0.126 0.149 l 0.094 0.153 l 0.1 0.152 c 0.038 0.048 0.068 0.102 0.09 0.162 c 0.051 0.115 0.105 0.231 0.163 0.347 c 0.037 0.128 0.076 0.257 0.119 0.387 c 0.293 1.067 0.216 2.442 -0.154 3.787 c -0.351 1.356 -0.977 2.694 -1.745 3.936 c -0.187 0.317 -0.396 0.616 -0.608 0.916 c -0.203 0.309 -0.441 0.585 -0.664 0.879 c -0.447 0.566 -0.96 1.089 -1.497 1.607 c -1.076 1.03 -2.232 1.994 -3.422 2.898 c -1.193 0.902 -2.339 1.771 -3.649 2.471 c 1.387 -0.479 2.65 -1.146 3.966 -1.855 c 1.317 -0.714 2.609 -1.49 3.867 -2.375 c 0.626 -0.444 1.257 -0.918 1.85 -1.475 c 0.286 -0.279 0.587 -0.543 0.857 -0.844 c 0.278 -0.293 0.556 -0.588 0.812 -0.907 c 1.048 -1.253 1.984 -2.663 2.664 -4.289 c 0.355 -0.803 0.614 -1.678 0.802 -2.594 c 0.184 -0.919 0.232 -1.909 0.128 -2.918 c -0.088 -1.008 -0.459 -2.053 -0.949 -2.929 c -0.491 -0.864 -1.13 -1.651 -1.899 -2.254 c -1.526 -1.224 -3.485 -1.809 -5.389 -1.663 c -0.481 0.017 -0.946 0.11 -1.418 0.201 c -0.232 0.054 -0.458 0.126 -0.688 0.192 l -0.343 0.105 l -0.331 0.131 c -0.901 0.329 -1.713 0.825 -2.504 1.352 c -1.253 0.835 -1.683 2.608 -0.96 3.961 c 0.723 1.353 2.324 1.774 3.578 0.939 c 0.106 -0.071 0.207 -0.148 0.301 -0.232 L 20.268 14.005 z" style="stroke: none; stroke-width: 1; stroke-dasharray: none; stroke-linecap: butt; stroke-linejoin: miter; stroke-miterlimit: 10; fill: rgb(101,204,239); fill-rule: nonzero; opacity: 1;" transform=" matrix(2.81 0 0 2.81 1.4065934065934016 1.4065934065934016) " stroke-linecap="round" />
	<circle cx="57.299" cy="8.949" r="8.949" style="stroke: none; stroke-width: 1; stroke-dasharray: none; stroke-linecap: butt; stroke-linejoin: miter; stroke-miterlimit: 10; fill: rgb(101,204,239); fill-rule: nonzero; opacity: 1;" transform="  matrix(1 0 0 1 0 0) "/>
	<path d="M 55.446 69.778 c -2.513 1.406 -5.209 2.6 -8.073 3.336 c -2.854 0.74 -5.885 0.98 -8.757 0.546 c -2.878 -0.439 -5.518 -1.54 -7.769 -2.99 c -2.261 -1.452 -4.169 -3.235 -5.846 -5.143 c 2.199 1.279 4.508 2.306 6.841 2.889 c 2.331 0.587 4.667 0.706 6.819 0.316 c 4.327 -0.809 7.819 -3.482 10.76 -6.754 c 1.849 -2.057 5.016 -2.226 7.073 -0.377 c 2.057 1.849 2.226 5.016 0.377 7.073 c -0.373 0.415 -0.8 0.753 -1.26 1.013 L 55.446 69.778 z" style="stroke: none; stroke-width: 1; stroke-dasharray: none; stroke-linecap: butt; stroke-linejoin: miter; stroke-miterlimit: 10; fill: rgb(241,195,67); fill-rule: nonzero; opacity: 1;" transform=" matrix(1 0 0 1 0 0) " stroke-linecap="round" />
	<circle cx="62.940000000000005" cy="55.28" r="5.63" style="stroke: none; stroke-width: 1; stroke-dasharray: none; stroke-linecap: butt; stroke-linejoin: miter; stroke-miterlimit: 10; fill: rgb(241,195,67); fill-rule: nonzero; opacity: 1;" transform="  matrix(1 0 0 1 0 0) "/>
</g>
</svg>